<?xml version="1.0" encoding="UTF-8"?>
<svg id="Livello_2" data-name="Livello 2" xmlns="http://www.w3.org/2000/svg" viewBox="0 0 458.33 151.85">
  <g id="Livello_3" data-name="Livello 3">
    <g>
      <g>
        <path d="M134.25,143.44c-1.8,0-3.3-.62-4.51-1.87-1.21-1.25-1.81-2.78-1.81-4.61v-.04c0-1.81.61-3.35,1.82-4.62,1.21-1.27,2.73-1.9,4.55-1.9,1.08,0,2,.17,2.76.5s1.48.83,2.15,1.49l-.97,1.04c-.6-.56-1.21-.99-1.83-1.29-.62-.29-1.33-.44-2.13-.44-1.39,0-2.55.5-3.48,1.49-.93,1-1.4,2.22-1.4,3.67v.04c0,1.46.46,2.7,1.4,3.7.93,1,2.09,1.5,3.48,1.5.82,0,1.54-.15,2.16-.45s1.26-.76,1.91-1.37l.94.92c-.71.72-1.46,1.27-2.25,1.65s-1.72.57-2.79.57Z" fill="#a7a8a8"/>
        <path d="M146.21,143.44c-1.38,0-2.53-.47-3.45-1.41-.92-.94-1.38-2.08-1.38-3.41v-.04c0-1.34.46-2.49,1.39-3.44.92-.95,2.08-1.42,3.47-1.42s2.53.47,3.46,1.41c.92.94,1.39,2.08,1.39,3.41v.04c0,1.34-.46,2.49-1.4,3.44-.93.95-2.09,1.42-3.48,1.42ZM146.24,142.19c.98,0,1.8-.35,2.45-1.04.65-.7.97-1.54.97-2.54v-.04c0-1.01-.33-1.87-1-2.57s-1.48-1.06-2.46-1.06-1.8.35-2.44,1.05-.96,1.55-.96,2.55v.04c0,1.01.33,1.86.99,2.57.66.7,1.48,1.05,2.45,1.05Z" fill="#a7a8a8"/>
        <path d="M154.23,143.22v-13.14h1.39v13.14h-1.39Z" fill="#a7a8a8"/>
        <path d="M159.49,143.22v-13.14h1.39v13.14h-1.39Z" fill="#a7a8a8"/>
        <path d="M168.69,143.44c-1.3,0-2.39-.45-3.29-1.36-.9-.91-1.35-2.07-1.35-3.48v-.04c0-1.36.42-2.5,1.27-3.44.85-.94,1.91-1.4,3.19-1.4s2.39.47,3.17,1.4c.78.94,1.17,2.11,1.17,3.51,0,.19,0,.34-.02.45h-7.38c.1.98.45,1.76,1.07,2.31s1.35.84,2.21.84c1.1,0,2.08-.44,2.93-1.31l.86.77c-1.02,1.16-2.3,1.75-3.83,1.75ZM165.45,138.05h5.99c-.07-.9-.36-1.65-.87-2.26-.51-.61-1.21-.91-2.1-.91-.8,0-1.48.3-2.04.9-.56.6-.89,1.36-.98,2.27Z" fill="#a7a8a8"/>
        <path d="M179.99,143.44c-1.36,0-2.49-.47-3.4-1.42s-1.37-2.08-1.37-3.4v-.04c0-1.34.46-2.49,1.37-3.44s2.05-1.42,3.4-1.42c1.44,0,2.68.55,3.73,1.66l-.92.97c-.89-.94-1.83-1.4-2.83-1.4s-1.74.35-2.38,1.04c-.64.7-.95,1.55-.95,2.56v.04c0,1.01.33,1.86.98,2.57.65.7,1.47,1.05,2.44,1.05,1.03,0,1.98-.46,2.84-1.39l.88.83c-1.06,1.2-2.32,1.8-3.8,1.8Z" fill="#a7a8a8"/>
        <path d="M189.71,143.38c-.8,0-1.44-.21-1.92-.64-.47-.43-.71-1.09-.71-1.99v-5.62h-1.3v-1.22h1.3v-2.81h1.39v2.81h2.95v1.22h-2.95v5.44c0,1.03.52,1.55,1.57,1.55.46,0,.91-.11,1.35-.32v1.19c-.48.26-1.04.4-1.67.4Z" fill="#a7a8a8"/>
        <path d="M194.43,131.88v-1.53h1.58v1.53h-1.58ZM194.52,143.22v-9.31h1.39v9.31h-1.39Z" fill="#a7a8a8"/>
        <path d="M202.76,143.29l-4.03-9.38h1.53l3.13,7.72,3.15-7.72h1.49l-4.05,9.38h-1.22Z" fill="#a7a8a8"/>
        <path d="M214.26,143.44c-1.3,0-2.39-.45-3.29-1.36-.9-.91-1.35-2.07-1.35-3.48v-.04c0-1.36.42-2.5,1.27-3.44.85-.94,1.91-1.4,3.19-1.4s2.39.47,3.17,1.4c.78.94,1.17,2.11,1.17,3.51,0,.19,0,.34-.02.45h-7.38c.1.98.45,1.76,1.07,2.31s1.35.84,2.21.84c1.1,0,2.08-.44,2.93-1.31l.86.77c-1.02,1.16-2.3,1.75-3.83,1.75ZM211.02,138.05h5.99c-.07-.9-.36-1.65-.87-2.26-.51-.61-1.21-.91-2.1-.91-.8,0-1.48.3-2.04.9-.56.6-.89,1.36-.98,2.27Z" fill="#a7a8a8"/>
        <path d="M231.85,143.4c-1.94,0-3.66-.67-5.15-2.02l.88-1.04c.67.61,1.35,1.06,2.03,1.35s1.44.43,2.29.43,1.52-.2,2.03-.6c.52-.4.77-.92.77-1.54v-.04c0-.61-.23-1.09-.68-1.45-.46-.35-1.32-.67-2.59-.94-1.49-.32-2.57-.76-3.23-1.31-.67-.55-1-1.32-1-2.33v-.04c0-.98.39-1.8,1.18-2.46.79-.65,1.77-.98,2.96-.98.9,0,1.69.13,2.38.38.69.25,1.37.64,2.04,1.17l-.83,1.1c-1.12-.91-2.33-1.37-3.64-1.37-.82,0-1.47.19-1.95.58-.49.38-.73.87-.73,1.46v.04c0,.62.24,1.12.71,1.49.47.37,1.38.69,2.71.96,1.43.32,2.47.76,3.12,1.31.65.55.98,1.3.98,2.25v.04c0,1.07-.4,1.93-1.21,2.58-.8.65-1.84.98-3.1.98Z" fill="#a7a8a8"/>
        <path d="M243.04,141.67l2.99-7.76h1.48l-3.91,9.61c-.38.95-.82,1.62-1.31,2.03-.49.4-1.08.6-1.79.6s-1.33-.16-1.98-.47l.47-1.1c.44.23.93.34,1.46.34.43,0,.79-.13,1.07-.39.28-.26.56-.71.84-1.36l-4.23-9.27h1.53l3.38,7.76Z" fill="#a7a8a8"/>
        <path d="M252.94,143.4c-1.43,0-2.71-.46-3.85-1.37l.7-.99c1.03.79,2.11,1.19,3.22,1.19.58,0,1.04-.13,1.39-.4.35-.26.53-.62.53-1.08v-.04c0-.42-.2-.74-.59-.97-.4-.23-.97-.45-1.73-.67-.34-.1-.58-.17-.74-.22s-.38-.14-.68-.26-.53-.24-.67-.35c-.15-.11-.31-.26-.49-.43s-.3-.38-.38-.6c-.08-.23-.12-.48-.12-.76v-.04c0-.79.3-1.43.89-1.93.59-.49,1.35-.74,2.28-.74,1.2,0,2.32.34,3.35,1.03l-.63,1.04c-.92-.6-1.84-.9-2.75-.9-.54,0-.97.13-1.3.38s-.5.58-.5.97v.04c0,.17.05.32.14.47.1.14.2.26.32.36s.31.2.57.31.46.19.62.23c.16.05.4.13.74.23.35.11.64.2.87.29.23.08.5.2.79.35.29.15.53.31.7.49.17.17.32.39.44.66.12.26.18.56.18.88v.04c0,.86-.31,1.54-.94,2.04s-1.42.75-2.38.75Z" fill="#a7a8a8"/>
        <path d="M262.29,143.38c-.8,0-1.44-.21-1.92-.64-.47-.43-.71-1.09-.71-1.99v-5.62h-1.3v-1.22h1.3v-2.81h1.39v2.81h2.95v1.22h-2.95v5.44c0,1.03.52,1.55,1.57,1.55.46,0,.91-.11,1.35-.32v1.19c-.48.26-1.04.4-1.67.4Z" fill="#a7a8a8"/>
        <path d="M270.76,143.44c-1.3,0-2.39-.45-3.29-1.36-.9-.91-1.35-2.07-1.35-3.48v-.04c0-1.36.42-2.5,1.27-3.44.85-.94,1.91-1.4,3.2-1.4s2.39.47,3.17,1.4c.78.94,1.17,2.11,1.17,3.51,0,.19,0,.34-.02.45h-7.38c.1.98.45,1.76,1.07,2.31s1.35.84,2.21.84c1.1,0,2.08-.44,2.93-1.31l.86.77c-1.02,1.16-2.3,1.75-3.83,1.75ZM267.52,138.05h5.99c-.07-.9-.36-1.65-.87-2.26-.51-.61-1.21-.91-2.1-.91-.8,0-1.49.3-2.04.9-.56.6-.89,1.36-.98,2.27Z" fill="#a7a8a8"/>
        <path d="M277.87,143.22v-9.31h1.39v1.57c.37-.55.79-.98,1.24-1.3s1.04-.47,1.76-.47c1.4,0,2.4.62,2.99,1.85.83-1.24,1.92-1.85,3.28-1.85,1.08,0,1.93.33,2.54,1,.61.67.92,1.58.92,2.75v5.76h-1.39v-5.44c0-.9-.21-1.59-.64-2.08-.43-.49-1.02-.73-1.77-.73s-1.33.26-1.83.77c-.5.52-.75,1.22-.75,2.11v5.36h-1.37v-5.47c0-.88-.21-1.56-.64-2.04-.43-.49-1.01-.73-1.75-.73s-1.36.28-1.85.83-.74,1.25-.74,2.11v5.31h-1.39Z" fill="#a7a8a8"/>
        <path d="M295.5,131.88v-1.53h1.58v1.53h-1.58ZM295.59,143.22v-9.31h1.39v9.31h-1.39Z" fill="#a7a8a8"/>
        <path d="M304.91,143.44c-1.36,0-2.49-.47-3.4-1.42s-1.37-2.08-1.37-3.4v-.04c0-1.34.46-2.49,1.37-3.44s2.05-1.42,3.4-1.42c1.44,0,2.68.55,3.73,1.66l-.92.97c-.89-.94-1.83-1.4-2.83-1.4s-1.74.35-2.38,1.04c-.64.7-.95,1.55-.95,2.56v.04c0,1.01.33,1.86.98,2.57.65.7,1.47,1.05,2.44,1.05,1.03,0,1.98-.46,2.84-1.39l.88.83c-1.06,1.2-2.32,1.8-3.8,1.8Z" fill="#a7a8a8"/>
        <path d="M323.43,143.44c-1.8,0-3.3-.62-4.51-1.87-1.21-1.25-1.81-2.78-1.81-4.61v-.04c0-1.81.61-3.35,1.82-4.62,1.21-1.27,2.73-1.9,4.55-1.9,1.08,0,2,.17,2.76.5.76.34,1.48.83,2.15,1.49l-.97,1.04c-.6-.56-1.21-.99-1.83-1.29-.62-.29-1.33-.44-2.13-.44-1.39,0-2.55.5-3.48,1.49s-1.39,2.22-1.39,3.67v.04c0,1.46.46,2.7,1.39,3.7s2.09,1.5,3.48,1.5c.82,0,1.54-.15,2.16-.45s1.26-.76,1.91-1.37l.94.92c-.71.72-1.46,1.27-2.25,1.65s-1.72.57-2.79.57Z" fill="#a7a8a8"/>
        <path d="M331.31,143.22v-13.14h1.39v5.45c.76-1.21,1.82-1.82,3.19-1.82,1.1,0,1.97.34,2.61,1.03.64.68.95,1.58.95,2.7v5.78h-1.39v-5.44c0-.88-.22-1.56-.67-2.06s-1.08-.75-1.9-.75-1.47.27-2,.81c-.53.54-.79,1.24-.79,2.11v5.33h-1.39Z" fill="#a7a8a8"/>
        <path d="M342.93,143.22v-9.31h1.39v2.43c.36-.8.87-1.44,1.53-1.92.66-.47,1.42-.7,2.27-.67v1.49h-.11c-1.07,0-1.95.37-2.65,1.12s-1.04,1.79-1.04,3.15v3.71h-1.39Z" fill="#a7a8a8"/>
        <path d="M354.59,143.44c-1.38,0-2.53-.47-3.45-1.41-.92-.94-1.38-2.08-1.38-3.41v-.04c0-1.34.46-2.49,1.39-3.44.92-.95,2.08-1.42,3.47-1.42s2.53.47,3.46,1.41c.92.94,1.39,2.08,1.39,3.41v.04c0,1.34-.46,2.49-1.39,3.44s-2.09,1.42-3.48,1.42ZM354.63,142.19c.98,0,1.8-.35,2.45-1.04.65-.7.97-1.54.97-2.54v-.04c0-1.01-.33-1.87-1-2.57s-1.48-1.06-2.46-1.06-1.8.35-2.44,1.05c-.64.7-.96,1.55-.96,2.55v.04c0,1.01.33,1.86.99,2.57.66.7,1.48,1.05,2.45,1.05Z" fill="#a7a8a8"/>
        <path d="M362.49,143.22v-9.31h1.39v1.62c.76-1.21,1.82-1.82,3.19-1.82,1.1,0,1.97.34,2.61,1.03.64.68.95,1.58.95,2.7v5.78h-1.39v-5.44c0-.88-.22-1.56-.67-2.06s-1.08-.75-1.9-.75-1.47.27-2,.81c-.53.54-.79,1.24-.79,2.11v5.33h-1.39Z" fill="#a7a8a8"/>
        <path d="M378.35,143.44c-1.38,0-2.53-.47-3.45-1.41-.92-.94-1.38-2.08-1.38-3.41v-.04c0-1.34.46-2.49,1.39-3.44.92-.95,2.08-1.42,3.47-1.42s2.53.47,3.46,1.41c.92.94,1.39,2.08,1.39,3.41v.04c0,1.34-.46,2.49-1.39,3.44-.93.95-2.09,1.42-3.48,1.42ZM378.39,142.19c.98,0,1.8-.35,2.45-1.04.65-.7.97-1.54.97-2.54v-.04c0-1.01-.33-1.87-1-2.57s-1.49-1.06-2.46-1.06-1.8.35-2.44,1.05c-.64.7-.96,1.55-.96,2.55v.04c0,1.01.33,1.86.99,2.57s1.48,1.05,2.45,1.05Z" fill="#a7a8a8"/>
        <path d="M390.37,146.14c-1.57,0-2.98-.43-4.23-1.3l.63-1.08c1.1.79,2.3,1.19,3.58,1.19,1.06,0,1.88-.29,2.48-.85.6-.57.9-1.39.9-2.46v-1.1c-.98,1.31-2.2,1.96-3.65,1.96-1.16,0-2.18-.4-3.06-1.21-.88-.81-1.31-1.86-1.31-3.14v-.04c0-1.31.43-2.37,1.31-3.18.87-.81,1.89-1.21,3.07-1.21,1.46,0,2.68.62,3.64,1.87v-1.67h1.39v7.69c0,1.4-.4,2.5-1.19,3.29s-2.01,1.24-3.55,1.24ZM390.36,141.28c.91,0,1.71-.3,2.39-.89.68-.59,1.03-1.35,1.03-2.26v-.04c0-.92-.34-1.68-1.02-2.27s-1.48-.88-2.4-.88-1.68.29-2.29.86c-.62.58-.93,1.33-.93,2.27v.04c0,.91.32,1.67.95,2.27.63.6,1.39.9,2.28.9Z" fill="#a7a8a8"/>
        <path d="M398.73,143.22v-9.31h1.39v2.43c.36-.8.87-1.44,1.53-1.92.66-.47,1.42-.7,2.27-.67v1.49h-.11c-1.07,0-1.95.37-2.65,1.12-.7.74-1.04,1.79-1.04,3.15v3.71h-1.39Z" fill="#a7a8a8"/>
        <path d="M408.86,143.42c-.94,0-1.75-.25-2.44-.77-.69-.51-1.04-1.22-1.04-2.13v-.04c0-.95.36-1.69,1.09-2.21.73-.53,1.69-.79,2.89-.79.95,0,1.9.13,2.86.4v-.32c0-.83-.24-1.46-.72-1.89-.48-.43-1.16-.65-2.05-.65-.94,0-1.88.23-2.83.68l-.41-1.13c1.09-.52,2.22-.77,3.38-.77,1.32,0,2.32.34,3.01,1.03.64.64.95,1.54.95,2.72v5.69h-1.33v-1.4c-.82,1.07-1.94,1.6-3.37,1.6ZM409.13,142.32c.88,0,1.61-.24,2.21-.71.6-.47.9-1.08.9-1.81v-.9c-.94-.26-1.85-.4-2.74-.4s-1.53.17-2.01.52c-.47.35-.71.82-.71,1.4v.04c0,.56.23,1.01.68,1.35s1.01.5,1.66.5Z" fill="#a7a8a8"/>
        <path d="M417.03,146.1v-12.19h1.39v1.87c.97-1.38,2.16-2.07,3.56-2.07,1.19,0,2.23.44,3.11,1.31.89.88,1.33,2.05,1.33,3.51v.04c0,1.45-.44,2.62-1.33,3.51-.89.89-1.93,1.33-3.11,1.33-1.48,0-2.66-.66-3.56-1.98v4.66h-1.39ZM421.73,142.18c.94,0,1.72-.32,2.34-.97.62-.65.94-1.52.94-2.61v-.04c0-1.08-.32-1.95-.95-2.61-.63-.66-1.41-.99-2.33-.99s-1.67.34-2.35,1.03c-.68.68-1.02,1.54-1.02,2.56v.04c0,1.04.34,1.91,1.01,2.58.67.68,1.46,1.02,2.36,1.02Z" fill="#a7a8a8"/>
        <path d="M429.51,143.22v-13.14h1.39v5.45c.76-1.21,1.82-1.82,3.19-1.82,1.1,0,1.97.34,2.61,1.03.64.68.95,1.58.95,2.7v5.78h-1.39v-5.44c0-.88-.22-1.56-.67-2.06s-1.08-.75-1.9-.75-1.47.27-2,.81c-.53.54-.79,1.24-.79,2.11v5.33h-1.39Z" fill="#a7a8a8"/>
        <path d="M444.82,141.67l2.99-7.76h1.48l-3.91,9.61c-.38.95-.82,1.62-1.3,2.03-.49.4-1.08.6-1.79.6s-1.33-.16-1.98-.47l.47-1.1c.44.23.93.34,1.46.34.43,0,.79-.13,1.07-.39.28-.26.56-.71.84-1.36l-4.23-9.27h1.53l3.38,7.76Z" fill="#a7a8a8"/>
      </g>
      <path d="M258.93,12.94v13.74c0,1.12-.9,2.02-2.02,2.02h-13.74c-.53,0-1.04-.21-1.42-.59l-3.01-3.01c-1.27-1.27-.37-3.44,1.42-3.44h.34c-6.98-4.44-15-6.74-23.42-6.66-22.44.21-41.19,18.02-42.51,40.41-1.47,24.89,18.35,45.61,42.93,45.61,6.4,0,12.56-1.38,18.31-4.09l3.17-1.49c1.99-.94,4.38-.08,5.32,1.92l2.98,6.33c.94,2,.09,4.38-1.91,5.32l-3.17,1.49c-7.76,3.66-16.07,5.52-24.7,5.52-33.3,0-60.13-28.2-57.88-61.97C161.67,23.3,187.97-.64,218.78.01c12.05.26,23.45,4.14,33.11,11.29v-1.37c0-1.79,2.17-2.69,3.44-1.42l3.01,3.01c.38.38.59.89.59,1.42Z" fill="#bf963b"/>
      <polygon points="259.06 16.86 258.93 17.03 258.93 16.76 259.06 16.86" fill="#bf963b"/>
      <path d="M337.27,83.26v27.74c0,2.21-1.79,4-4,4h-7c-2.21,0-4-1.79-4-4v-27.27c0-9.93-8.12-18.38-18.05-18.22s-17.46,8.06-17.46,17.75v27.74c0,2.21-1.79,4-4,4h-7c-2.21,0-4-1.79-4-4V14.81c0-2.21,1.79-4,4-4h7c2.21,0,4,1.79,4,4v40.94c5.12-3.31,11.22-5.24,17.76-5.24,16.94,0,30.91,12.92,32.58,29.43.11,1.09.17,2.2.17,3.32Z" fill="#bf963b"/>
      <path d="M390.48,54.51v7c0,2.21-1.79,4-4,4h-3.5c-9.8,0-17.75,7.95-17.75,17.75v27.74c0,2.21-1.79,4-4,4h-7c-2.21,0-4-1.79-4-4v-56.49c0-2.21,1.79-4,4-4h7c2.21,0,4,1.79,4,4v1.23c5.12-3.31,11.21-5.23,17.75-5.23h3.5c2.21,0,4,1.79,4,4Z" fill="#bf963b"/>
      <path d="M425.58,116.02c-18.06,0-32.75-14.69-32.75-32.75s14.69-32.75,32.75-32.75,32.75,14.69,32.75,32.75-14.69,32.75-32.75,32.75ZM425.58,65.51c-9.79,0-17.75,7.96-17.75,17.75s7.96,17.75,17.75,17.75,17.75-7.96,17.75-17.75-7.96-17.75-17.75-17.75Z" fill="#bf963b"/>
      <path d="M33.32,116.01C15,116.33,0,100.94,0,82.61v-2.85c0-2.21,1.79-4,4-4h7c2.21,0,4,1.79,4,4v3.03c0,9.93,8.13,18.39,18.05,18.22s17.45-8.06,17.45-17.75-11.8-15.76-17.75-17.75C21.77,61.83,0,58.01,0,32.76,0,14.89,14.39.31,32.19,0s33.32,15.08,33.32,33.4v2.85c0,2.21-1.79,4-4,4h-7c-2.21,0-4-1.79-4-4v-3.03c0-9.93-8.13-18.39-18.05-18.22s-17.45,8.06-17.45,17.75,11.87,15.57,17.75,17.75c10.86,4.02,32.75,9.69,32.75,32.75,0,17.87-14.39,32.45-32.19,32.75Z" fill="#bf963b"/>
      <path d="M337.27,79.94v3.32c0-1.12-.06-2.23-.17-3.32h.17Z" fill="#bf963b"/>
      <path d="M148.05,60.81l-44.55,88.83c-.99,1.97-3.38,2.77-5.36,1.79l-6.24-3.1c-1.99-.99-2.79-3.42-1.78-5.4l12.29-26.33-28.87-58.07c-.74-1.48-.13-3.28,1.35-4.02l8.06-4.01c1.48-.74,3.28-.13,4.02,1.35l23.82,47.91,23.82-45.63c.74-1.48,2.54-2.09,4.02-1.35l8.06,4.01c1.48.74,2.09,2.54,1.35,4.02Z" fill="#bf963b"/>
    </g>
  </g>
</svg>